<mxfile host="Electron" modified="2024-03-14T20:29:08.647Z" agent="Mozilla/5.0 (Windows NT 10.0; Win64; x64) AppleWebKit/537.36 (KHTML, like Gecko) draw.io/24.0.4 Chrome/120.0.6099.109 Electron/28.1.0 Safari/537.36" etag="qPwl1kfXeVbhTqcWxA8u" version="24.0.4" type="device">
  <diagram name="PÃ¡gina-1" id="JLxF8f-kE7GPjMCaRS9Y">
    <mxGraphModel dx="785" dy="462" grid="1" gridSize="10" guides="1" tooltips="1" connect="1" arrows="1" fold="1" page="1" pageScale="1" pageWidth="827" pageHeight="1169" math="0" shadow="0">
      <root>
        <mxCell id="0" />
        <mxCell id="1" parent="0" />
        <mxCell id="8_9oeL5ZTtR3iy9-YpAO-3" value="" style="shape=umlLifeline;perimeter=lifelinePerimeter;whiteSpace=wrap;html=1;container=1;dropTarget=0;collapsible=0;recursiveResize=0;outlineConnect=0;portConstraint=eastwest;newEdgeStyle={&quot;curved&quot;:0,&quot;rounded&quot;:0};participant=umlActor;" vertex="1" parent="1">
          <mxGeometry x="70" y="60" width="20" height="380" as="geometry" />
        </mxCell>
        <mxCell id="8_9oeL5ZTtR3iy9-YpAO-6" value="" style="html=1;points=[[0,0,0,0,5],[0,1,0,0,-5],[1,0,0,0,5],[1,1,0,0,-5]];perimeter=orthogonalPerimeter;outlineConnect=0;targetShapes=umlLifeline;portConstraint=eastwest;newEdgeStyle={&quot;curved&quot;:0,&quot;rounded&quot;:0};" vertex="1" parent="8_9oeL5ZTtR3iy9-YpAO-3">
          <mxGeometry x="5" y="70" width="10" height="300" as="geometry" />
        </mxCell>
        <mxCell id="8_9oeL5ZTtR3iy9-YpAO-4" value="Secretario" style="text;html=1;align=center;verticalAlign=middle;resizable=0;points=[];autosize=1;strokeColor=none;fillColor=none;" vertex="1" parent="1">
          <mxGeometry x="40" y="100" width="80" height="30" as="geometry" />
        </mxCell>
        <mxCell id="8_9oeL5ZTtR3iy9-YpAO-7" value="" style="shape=umlLifeline;perimeter=lifelinePerimeter;whiteSpace=wrap;html=1;container=1;dropTarget=0;collapsible=0;recursiveResize=0;outlineConnect=0;portConstraint=eastwest;newEdgeStyle={&quot;curved&quot;:0,&quot;rounded&quot;:0};participant=umlBoundary;" vertex="1" parent="1">
          <mxGeometry x="190" y="60" width="50" height="380" as="geometry" />
        </mxCell>
        <mxCell id="8_9oeL5ZTtR3iy9-YpAO-9" value="" style="html=1;points=[[0,0,0,0,5],[0,1,0,0,-5],[1,0,0,0,5],[1,1,0,0,-5]];perimeter=orthogonalPerimeter;outlineConnect=0;targetShapes=umlLifeline;portConstraint=eastwest;newEdgeStyle={&quot;curved&quot;:0,&quot;rounded&quot;:0};" vertex="1" parent="8_9oeL5ZTtR3iy9-YpAO-7">
          <mxGeometry x="20" y="70" width="10" height="300" as="geometry" />
        </mxCell>
        <mxCell id="8_9oeL5ZTtR3iy9-YpAO-8" value=":&lt;u&gt;Interfaz&lt;/u&gt;" style="text;html=1;align=center;verticalAlign=middle;resizable=0;points=[];autosize=1;strokeColor=none;fillColor=none;" vertex="1" parent="1">
          <mxGeometry x="180" y="100" width="70" height="30" as="geometry" />
        </mxCell>
        <mxCell id="8_9oeL5ZTtR3iy9-YpAO-10" value="" style="shape=umlLifeline;perimeter=lifelinePerimeter;whiteSpace=wrap;html=1;container=1;dropTarget=0;collapsible=0;recursiveResize=0;outlineConnect=0;portConstraint=eastwest;newEdgeStyle={&quot;curved&quot;:0,&quot;rounded&quot;:0};participant=umlControl;" vertex="1" parent="1">
          <mxGeometry x="315" y="60" width="40" height="380" as="geometry" />
        </mxCell>
        <mxCell id="8_9oeL5ZTtR3iy9-YpAO-12" value="" style="html=1;points=[[0,0,0,0,5],[0,1,0,0,-5],[1,0,0,0,5],[1,1,0,0,-5]];perimeter=orthogonalPerimeter;outlineConnect=0;targetShapes=umlLifeline;portConstraint=eastwest;newEdgeStyle={&quot;curved&quot;:0,&quot;rounded&quot;:0};" vertex="1" parent="8_9oeL5ZTtR3iy9-YpAO-10">
          <mxGeometry x="15" y="90" width="10" height="160" as="geometry" />
        </mxCell>
        <mxCell id="8_9oeL5ZTtR3iy9-YpAO-11" value="&lt;u style=&quot;text-wrap: wrap;&quot;&gt;:GestorMedicos&lt;/u&gt;" style="text;html=1;align=center;verticalAlign=middle;resizable=0;points=[];autosize=1;strokeColor=none;fillColor=none;" vertex="1" parent="1">
          <mxGeometry x="280" y="100" width="110" height="30" as="geometry" />
        </mxCell>
        <mxCell id="8_9oeL5ZTtR3iy9-YpAO-13" value="" style="shape=umlLifeline;perimeter=lifelinePerimeter;whiteSpace=wrap;html=1;container=1;dropTarget=0;collapsible=0;recursiveResize=0;outlineConnect=0;portConstraint=eastwest;newEdgeStyle={&quot;curved&quot;:0,&quot;rounded&quot;:0};participant=umlEntity;" vertex="1" parent="1">
          <mxGeometry x="529" y="60" width="40" height="380" as="geometry" />
        </mxCell>
        <mxCell id="8_9oeL5ZTtR3iy9-YpAO-23" value="" style="html=1;points=[[0,0,0,0,5],[0,1,0,0,-5],[1,0,0,0,5],[1,1,0,0,-5]];perimeter=orthogonalPerimeter;outlineConnect=0;targetShapes=umlLifeline;portConstraint=eastwest;newEdgeStyle={&quot;curved&quot;:0,&quot;rounded&quot;:0};" vertex="1" parent="8_9oeL5ZTtR3iy9-YpAO-13">
          <mxGeometry x="15" y="120" width="10" height="80" as="geometry" />
        </mxCell>
        <mxCell id="8_9oeL5ZTtR3iy9-YpAO-14" value=":&lt;u&gt;Medico&lt;/u&gt;" style="text;html=1;align=center;verticalAlign=middle;resizable=0;points=[];autosize=1;strokeColor=none;fillColor=none;" vertex="1" parent="1">
          <mxGeometry x="514" y="100" width="70" height="30" as="geometry" />
        </mxCell>
        <mxCell id="8_9oeL5ZTtR3iy9-YpAO-15" style="edgeStyle=orthogonalEdgeStyle;rounded=0;orthogonalLoop=1;jettySize=auto;html=1;curved=0;exitX=1;exitY=0;exitDx=0;exitDy=5;exitPerimeter=0;entryX=0;entryY=0;entryDx=0;entryDy=5;entryPerimeter=0;" edge="1" parent="1" source="8_9oeL5ZTtR3iy9-YpAO-6" target="8_9oeL5ZTtR3iy9-YpAO-9">
          <mxGeometry relative="1" as="geometry" />
        </mxCell>
        <mxCell id="8_9oeL5ZTtR3iy9-YpAO-16" value="Ingresa nombre" style="edgeLabel;html=1;align=center;verticalAlign=middle;resizable=0;points=[];" vertex="1" connectable="0" parent="8_9oeL5ZTtR3iy9-YpAO-15">
          <mxGeometry x="-0.1368" y="-1" relative="1" as="geometry">
            <mxPoint x="4" as="offset" />
          </mxGeometry>
        </mxCell>
        <mxCell id="8_9oeL5ZTtR3iy9-YpAO-22" value="Consultar(nombre)" style="html=1;verticalAlign=bottom;endArrow=block;curved=0;rounded=0;entryX=0.5;entryY=0.071;entryDx=0;entryDy=0;entryPerimeter=0;" edge="1" parent="1" target="8_9oeL5ZTtR3iy9-YpAO-12">
          <mxGeometry width="80" relative="1" as="geometry">
            <mxPoint x="220" y="160" as="sourcePoint" />
            <mxPoint x="310" y="160" as="targetPoint" />
            <mxPoint as="offset" />
          </mxGeometry>
        </mxCell>
        <mxCell id="8_9oeL5ZTtR3iy9-YpAO-24" value="Loop" style="shape=umlFrame;whiteSpace=wrap;html=1;pointerEvents=0;" vertex="1" parent="1">
          <mxGeometry x="299" y="165" width="291" height="105" as="geometry" />
        </mxCell>
        <mxCell id="8_9oeL5ZTtR3iy9-YpAO-25" value="Obtiene nombre y especialidad" style="html=1;verticalAlign=bottom;endArrow=block;curved=0;rounded=0;" edge="1" parent="1" target="8_9oeL5ZTtR3iy9-YpAO-23">
          <mxGeometry x="-0.0303" width="80" relative="1" as="geometry">
            <mxPoint x="340" y="220" as="sourcePoint" />
            <mxPoint x="505" y="220" as="targetPoint" />
            <mxPoint as="offset" />
          </mxGeometry>
        </mxCell>
        <mxCell id="8_9oeL5ZTtR3iy9-YpAO-27" value="Nombre y especialidad" style="html=1;verticalAlign=bottom;endArrow=open;dashed=1;endSize=8;curved=0;rounded=0;" edge="1" parent="1" source="8_9oeL5ZTtR3iy9-YpAO-23">
          <mxGeometry relative="1" as="geometry">
            <mxPoint x="500" y="250" as="sourcePoint" />
            <mxPoint x="340" y="250" as="targetPoint" />
          </mxGeometry>
        </mxCell>
        <mxCell id="8_9oeL5ZTtR3iy9-YpAO-28" value="&lt;p style=&quot;line-height: 100%;&quot;&gt;(Hasta que encuentre medico&lt;/p&gt;&lt;p style=&quot;line-height: 0%;&quot;&gt;&amp;nbsp;o no queden mas)&lt;/p&gt;" style="text;html=1;align=center;verticalAlign=middle;resizable=0;points=[];autosize=1;strokeColor=none;fillColor=none;" vertex="1" parent="1">
          <mxGeometry x="360" y="150" width="180" height="60" as="geometry" />
        </mxCell>
        <mxCell id="8_9oeL5ZTtR3iy9-YpAO-29" value="Datos" style="html=1;verticalAlign=bottom;endArrow=open;dashed=1;endSize=8;curved=0;rounded=0;" edge="1" parent="1" target="8_9oeL5ZTtR3iy9-YpAO-9">
          <mxGeometry relative="1" as="geometry">
            <mxPoint x="330" y="290" as="sourcePoint" />
            <mxPoint x="250" y="290" as="targetPoint" />
          </mxGeometry>
        </mxCell>
        <mxCell id="8_9oeL5ZTtR3iy9-YpAO-30" value="Alt" style="shape=umlFrame;whiteSpace=wrap;html=1;pointerEvents=0;" vertex="1" parent="1">
          <mxGeometry x="30" y="300" width="240" height="150" as="geometry" />
        </mxCell>
        <mxCell id="8_9oeL5ZTtR3iy9-YpAO-31" value="" style="line;strokeWidth=2;html=1;dashed=1;" vertex="1" parent="1">
          <mxGeometry x="30" y="370" width="240" height="10" as="geometry" />
        </mxCell>
        <mxCell id="8_9oeL5ZTtR3iy9-YpAO-32" value="(Datos == NULL)" style="text;html=1;align=center;verticalAlign=middle;resizable=0;points=[];autosize=1;strokeColor=none;fillColor=none;" vertex="1" parent="1">
          <mxGeometry x="90" y="308" width="110" height="30" as="geometry" />
        </mxCell>
        <mxCell id="8_9oeL5ZTtR3iy9-YpAO-33" value="Mensaje de error" style="html=1;verticalAlign=bottom;endArrow=open;dashed=1;endSize=8;curved=0;rounded=0;" edge="1" parent="1" target="8_9oeL5ZTtR3iy9-YpAO-6">
          <mxGeometry relative="1" as="geometry">
            <mxPoint x="210" y="350" as="sourcePoint" />
            <mxPoint x="130" y="350" as="targetPoint" />
          </mxGeometry>
        </mxCell>
        <mxCell id="8_9oeL5ZTtR3iy9-YpAO-34" value="Muestra especialidad" style="html=1;verticalAlign=bottom;endArrow=open;dashed=1;endSize=8;curved=0;rounded=0;" edge="1" parent="1" target="8_9oeL5ZTtR3iy9-YpAO-6">
          <mxGeometry relative="1" as="geometry">
            <mxPoint x="210" y="410" as="sourcePoint" />
            <mxPoint x="130" y="410" as="targetPoint" />
          </mxGeometry>
        </mxCell>
      </root>
    </mxGraphModel>
  </diagram>
</mxfile>
